<svg xmlns="http://www.w3.org/2000/svg" version="1.1" xmlns:xlink="http://www.w3.org/1999/xlink" xmlns:svgjs="http://svgjs.dev/svgjs" width="2000" height="1500" viewBox="0 0 2000 1500"><rect width="2000" height="1500" fill="#282634"></rect><g transform="matrix(0.75,0,0,0.75,249.090909090909,282.7536437246963)"><svg viewBox="0 0 396 247" data-background-color="#282634" preserveAspectRatio="xMidYMid meet" height="1247" width="2000" xmlns="http://www.w3.org/2000/svg" xmlns:xlink="http://www.w3.org/1999/xlink"><g id="tight-bounds" transform="matrix(1,0,0,1,0.2400000000000091,-0.09999999999999432)"><svg viewBox="0 0 395.52 247.2" height="247.2" width="395.52"><g><svg></svg></g><g><svg viewBox="0 0 395.52 247.2" height="247.2" width="395.52"><g transform="matrix(1,0,0,1,138.64692229299362,47.215199999999996)"><svg viewBox="0 0 118.22615541401272 152.7696" height="152.7696" width="118.22615541401272"><g><svg viewBox="0 0 118.22615541401272 152.7696" height="152.7696" width="118.22615541401272"><g><svg viewBox="0 0 118.22615541401272 152.7696" height="152.7696" width="118.22615541401272"><g><svg viewBox="0 0 118.22615541401272 152.7696" height="152.7696" width="118.22615541401272"><g><svg viewBox="0 0 118.22615541401272 152.7696" height="152.7696" width="118.22615541401272"><g><svg viewBox="0 0 118.22615541401272 152.7696" height="152.7696" width="118.22615541401272"><g transform="matrix(1,0,0,1,0,0)"><svg width="118.22615541401272" viewBox="5.050000190734863 -31.399999618530273 24.299999237060547 31.399999618530273" height="152.7696" data-palette-color="#ff4057"><path d="M8.45-16.25L23.1-31.4 28.5-31.4 8.45-10.75 8.45-16.25ZM11.3-15.6L14.1-18.15 29.35 0 24.25 0 11.3-15.6ZM5.05 0L5.05-31.4 9-31.4 9 0 5.05 0Z" opacity="1" transform="matrix(1,0,0,1,0,0)" fill="#ff4057" class="undefined-text-0" data-fill-palette-color="primary" id="text-0"></path></svg></g></svg></g></svg></g></svg></g></svg></g></svg></g></svg></g><path d="M74.572 41.215L74.572 0 321.772 0 321.772 247.2 74.572 247.2 74.572 205.985 88.349 205.985 88.349 233.423 307.995 233.423 307.995 13.777 88.349 13.777 88.349 41.215Z" fill="#ff4057" stroke="transparent" data-fill-palette-color="primary"></path></svg></g><defs></defs></svg><rect width="395.52" height="247.2" fill="none" stroke="none" visibility="hidden"></rect></g></svg></g></svg>