<svg xmlns="http://www.w3.org/2000/svg" version="1.1" xmlns:xlink="http://www.w3.org/1999/xlink" xmlns:svgjs="http://svgjs.dev/svgjs" width="2000" height="1313" viewBox="0 0 2000 1313"><g transform="matrix(1,0,0,1,0.019863961757664583,0.5315962468073394)"><svg viewBox="0 0 376 247" data-background-color="#046380" preserveAspectRatio="xMidYMid meet" height="1313" width="2000" xmlns="http://www.w3.org/2000/svg" xmlns:xlink="http://www.w3.org/1999/xlink"><g id="tight-bounds" transform="matrix(1,0,0,1,-0.0037344248104318467,-0.09999674565014516)"><svg viewBox="0 0 376.0074654321659 247.2" height="247.2" width="376.0074654321659"><g><svg viewBox="0 0 395.52000000000004 260.0281988753194" height="247.2" width="376.0074654321659"><g><svg viewBox="0 0 395.52000000000004 260.0281988753194" height="260.0281988753194" width="395.52000000000004"><g><svg viewBox="0 0 395.52000000000004 260.0281988753194" height="260.0281988753194" width="395.52000000000004"><g><svg viewBox="0 0 395.52000000000004 176.55941009642655" height="176.55941009642655" width="395.52000000000004"><g transform="matrix(1,0,0,1,0,0)"><svg width="395.52000000000004" viewBox="4.449999809265137 -38.849998474121094 88.13999938964844 39.349998474121094" height="176.55941009642655" data-palette-color="#ffffff"><path d="M32.7 0L25.95 0Q24.2-2.25 22.6-4.3 21-6.35 19.45-8.4 17.9-10.45 16.32-12.55 14.75-14.65 13-16.9L13-16.9Q12.35-16.2 11.75-15.63 11.15-15.05 10.45-14.45L10.45-14.45Q10.45-10.6 10.48-7.23 10.5-3.85 10.5 0L10.5 0 4.45 0 4.45-36.25 10.5-36.25 10.5-22.7Q10.5-22.25 10.43-21.83 10.35-21.4 10.35-20.95L10.35-20.95Q10.6-21.3 10.85-21.58 11.1-21.85 11.35-22.25L11.35-22.25Q14.9-25.6 18.2-29.23 21.5-32.85 25.05-36.25L25.05-36.25 32-36.25Q28.25-32.35 24.58-28.4 20.9-24.45 17.15-20.55L17.15-20.55Q19.25-17.85 21.18-15.33 23.1-12.8 24.98-10.3 26.85-7.8 28.75-5.25 30.65-2.7 32.7 0L32.7 0ZM35.35 0L35.35-38.85 39.6-38.85 39.6-15.85Q40.7-18.35 42.7-19.88 44.7-21.4 47.85-21.45L47.85-21.45Q51.05-21.5 52.97-19.75 54.9-18 55-15.2L55-15.2 55 0 50.7 0 50.7-13.25Q50.6-14.85 49.6-15.98 48.6-17.1 46.45-17.2L46.45-17.2Q44.95-17.2 43.7-16.68 42.45-16.15 41.55-15.25 40.65-14.35 40.12-13.1 39.6-11.85 39.6-10.35L39.6-10.35 39.6 0 35.35 0ZM59.35-10.25L59.35-10.25Q59.35-12.55 60.22-14.58 61.1-16.6 62.6-18.13 64.1-19.65 66.07-20.55 68.05-21.45 70.3-21.45L70.3-21.45Q71.8-21.45 73.05-21.08 74.3-20.7 75.2-20.15 76.1-19.6 76.65-19 77.2-18.4 77.4-17.95L77.4-17.95 77.6-20.9 81.7-20.9 81.7 0 77.4 0 77.4-2.65Q77.15-2.25 76.6-1.7 76.05-1.15 75.17-0.68 74.3-0.2 73.1 0.15 71.9 0.5 70.35 0.5L70.35 0.5Q67.95 0.5 65.92-0.38 63.9-1.25 62.45-2.73 61-4.2 60.17-6.15 59.35-8.1 59.35-10.25ZM63.65-10.5L63.65-10.5Q63.65-9.05 64.17-7.8 64.7-6.55 65.6-5.65 66.5-4.75 67.75-4.23 69-3.7 70.5-3.7L70.5-3.7Q72-3.7 73.27-4.23 74.55-4.75 75.47-5.68 76.4-6.6 76.9-7.83 77.4-9.05 77.4-10.5L77.4-10.5Q77.4-11.95 76.9-13.18 76.4-14.4 75.47-15.3 74.55-16.2 73.27-16.73 72-17.25 70.5-17.25L70.5-17.25Q69-17.25 67.75-16.73 66.5-16.2 65.6-15.3 64.7-14.4 64.17-13.18 63.65-11.95 63.65-10.5ZM87.14-28.9L87.14-28.9Q87.14-30.1 88.02-30.9 88.89-31.7 89.89-31.7L89.89-31.7Q90.89-31.7 91.74-30.9 92.59-30.1 92.59-28.9L92.59-28.9Q92.59-27.7 91.74-26.93 90.89-26.15 89.89-26.15L89.89-26.15Q88.89-26.15 88.02-26.93 87.14-27.7 87.14-28.9ZM91.94-20.9L91.94 0 87.69 0 87.69-20.9 91.94-20.9Z" opacity="1" transform="matrix(1,0,0,1,0,0)" fill="#ffffff" class="undefined-text-0" data-fill-palette-color="primary" id="text-0"></path></svg></g></svg></g><g transform="matrix(1,0,0,1,0,218.24084939435053)"><svg viewBox="0 0 395.52000000000004 41.78734948096885" height="41.78734948096885" width="395.52000000000004"><g transform="matrix(1,0,0,1,0,0)"><svg width="395.52000000000004" viewBox="2.5999999046325684 -36.400001525878906 433.5 45.80000305175781" height="41.78734948096885" data-palette-color="#ffffff"><path d="M23.65-25.15L23.65-26.25Q23.65-29.25 21.18-30.83 18.7-32.4 14.85-32.4L14.85-32.4Q10.9-32.4 8.5-30.93 6.1-29.45 6.1-26.25L6.1-26.25Q6.1-24.15 7.35-22.88 8.6-21.6 10.45-20.88 12.3-20.15 15.45-19.35L15.45-19.35Q19.25-18.35 21.58-17.43 23.9-16.5 25.53-14.58 27.15-12.65 27.15-9.4L27.15-9.4Q27.15-4.25 23.78-1.88 20.4 0.5 15 0.5L15 0.5Q9.4 0.5 6-1.83 2.6-4.15 2.6-9.35L2.6-9.35 2.65-10.25 5.2-10.25 5.15-8.9Q5.15-5.25 7.8-3.58 10.45-1.9 14.8-1.9L14.8-1.9Q24.5-1.9 24.5-9.25L24.5-9.25Q24.5-11.6 23.18-13.05 21.85-14.5 19.93-15.25 18-16 14.65-16.9L14.65-16.9Q10.95-17.9 8.75-18.8 6.55-19.7 5-21.53 3.45-23.35 3.45-26.4L3.45-26.4Q3.45-30.6 6.68-32.7 9.9-34.8 14.8-34.8L14.8-34.8Q19.85-34.8 23-32.6 26.15-30.4 26.15-25.8L26.15-25.8 26.15-25.15 23.65-25.15ZM44.75 0.5Q41.6 0.5 39.15-1.03 36.7-2.55 35.33-5.45 33.95-8.35 33.95-12.4L33.95-12.4 33.95-13.15Q33.95-17.2 35.33-20.1 36.7-23 39.15-24.53 41.6-26.05 44.75-26.05L44.75-26.05Q47.9-26.05 50.35-24.53 52.8-23 54.18-20.1 55.55-17.2 55.55-13.15L55.55-13.15 55.55-12.4Q55.55-8.35 54.18-5.45 52.8-2.55 50.35-1.03 47.9 0.5 44.75 0.5L44.75 0.5ZM44.75-1.8Q48.4-1.8 50.7-4.45 53-7.1 53-12.1L53-12.1 53-13.45Q53-18.45 50.7-21.1 48.4-23.75 44.75-23.75L44.75-23.75Q41.1-23.75 38.8-21.1 36.5-18.45 36.5-13.45L36.5-13.45 36.5-12.1Q36.5-7.1 38.8-4.45 41.1-1.8 44.75-1.8L44.75-1.8ZM73.45-33.3Q72.8-33.6 71.85-33.85 70.9-34.1 70.35-34.1L70.35-34.1Q69.05-34.1 68.28-33.43 67.5-32.75 67.5-30.75L67.5-30.75 67.5-25.55 73.45-25.55 73.45-23.25 67.5-23.25 67.5 0 64.95 0 64.95-23.25 62.15-23.25 62.15-25.55 64.95-25.55 64.95-30.85Q64.95-33.65 66.35-35.02 67.75-36.4 70.05-36.4L70.05-36.4Q70.95-36.4 71.88-36.18 72.8-35.95 73.45-35.55L73.45-35.55 73.45-33.3ZM90.15-0.35Q89.5 0.05 88.58 0.28 87.65 0.5 86.75 0.5L86.75 0.5Q84.45 0.5 83.05-0.9 81.65-2.3 81.65-5.05L81.65-5.05 81.65-23.25 78.85-23.25 78.85-25.55 81.65-25.55 82.55-33.7 84.2-33.7 84.2-25.55 90.15-25.55 90.15-23.25 84.2-23.25 84.2-5.15Q84.2-3.15 84.98-2.48 85.75-1.8 87.05-1.8L87.05-1.8Q87.6-1.8 88.55-2.05 89.5-2.3 90.15-2.6L90.15-2.6 90.15-0.35ZM113.6-22.3L105.85 0 103.85 0 95-25.55 97.65-25.55 104.9-4.65 105.05-4.65 112.3-25.55 115.25-25.55 122.5-4.65 122.65-4.65 129.9-25.55 132.35-25.55 123.45 0 121.45 0 113.7-22.3 113.6-22.3ZM156.9-3.45Q156.9-1.8 158.25-1.8L158.25-1.8Q159.4-1.8 160.75-2.6L160.75-2.6 160.75-0.45Q159.35 0.5 157.55 0.5L157.55 0.5Q155.75 0.5 155.05-0.83 154.35-2.15 154.35-4.45L154.35-4.45Q152.8-1.9 150.48-0.7 148.15 0.5 145 0.5L145 0.5Q141.45 0.5 139.2-1.13 136.95-2.75 136.95-6.65L136.95-6.65Q136.95-10.2 139.08-11.98 141.2-13.75 144.83-14.28 148.45-14.8 154.35-14.8L154.35-14.8 154.35-18Q154.35-21.2 152.83-22.48 151.3-23.75 147.7-23.75L147.7-23.75Q144.4-23.75 142.4-22.48 140.4-21.2 140.4-18.55L140.4-18.55 140.4-17.75 137.95-17.75Q137.85-18.55 137.85-19.05L137.85-19.05Q137.85-22.3 140.63-24.18 143.4-26.05 147.7-26.05L147.7-26.05Q152.35-26.05 154.63-24.2 156.9-22.35 156.9-18.5L156.9-18.5 156.9-3.45ZM154.35-12.5Q149.05-12.5 146.03-12.15 143-11.8 141.25-10.53 139.5-9.25 139.5-6.6L139.5-6.6Q139.5-4.1 140.93-2.95 142.35-1.8 145.5-1.8L145.5-1.8Q147.75-1.8 149.78-2.8 151.8-3.8 153.08-5.83 154.35-7.85 154.35-10.8L154.35-10.8 154.35-12.5ZM183.2-16.4L183.2-17.2Q183.2-19.7 181.75-21.73 180.3-23.75 176.95-23.75L176.95-23.75Q174.65-23.75 173.2-22.53 171.75-21.3 171.13-19.55 170.5-17.8 170.5-16.2L170.5-16.2 170.5 0 167.95 0 167.95-25.55 169.65-25.55 170.2-21.75Q170.2-21.95 170.98-23.05 171.75-24.15 173.38-25.1 175-26.05 177.45-26.05L177.45-26.05Q181.4-26.05 183.53-23.63 185.65-21.2 185.65-17.6L185.65-17.6Q185.65-17.1 185.6-16.8 185.55-16.5 185.55-16.4L185.55-16.4 183.2-16.4ZM211.5-9.45Q211.5-6.35 210.18-4.1 208.85-1.85 206.6-0.68 204.35 0.5 201.55 0.5L201.55 0.5Q198.4 0.5 195.98-1.03 193.55-2.55 192.2-5.45 190.85-8.35 190.85-12.4L190.85-12.4 190.85-13.15Q190.85-17.2 192.18-20.1 193.5-23 195.93-24.53 198.35-26.05 201.5-26.05L201.5-26.05Q204.35-26.05 206.63-24.83 208.9-23.6 210.2-21.28 211.5-18.95 211.5-15.7L211.5-15.7 211.5-12.5 193.4-12.5 193.4-12.1Q193.4-7.1 195.68-4.45 197.95-1.8 201.55-1.8L201.55-1.8Q204.75-1.8 206.88-3.75 209-5.7 209-9.45L209-9.45 211.5-9.45ZM201.5-23.75Q198.15-23.75 195.95-21.45 193.75-19.15 193.45-14.8L193.45-14.8 209-14.8 209-15.7Q209-19.6 206.88-21.68 204.75-23.75 201.5-23.75L201.5-23.75ZM254.6 0L232.9 0 232.9-34.3 254.1-34.3 253.6-31.9 235.6-31.9 235.6-18.7 251.55-18.7 251.55-16.3 235.6-16.3 235.6-2.4 254.05-2.4 254.6 0ZM279.7 0L279.7-15.7Q279.7-19.75 277.82-21.75 275.95-23.75 272.5-23.75L272.5-23.75Q270.3-23.75 268.5-22.7 266.7-21.65 265.68-19.8 264.65-17.95 264.65-15.7L264.65-15.7 264.65 0 262.1 0 262.1-25.55 263.8-25.55 264.35-21.75Q265.65-23.75 267.93-24.9 270.2-26.05 272.75-26.05L272.75-26.05Q276.95-26.05 279.57-23.63 282.2-21.2 282.2-16.45L282.2-16.45 282.2 0 279.7 0ZM307.8-3.35Q310.4-3.35 312.05-1.65 313.7 0.05 313.7 2.6L313.7 2.6Q313.7 4.5 312.77 6.05 311.85 7.6 310.22 8.5 308.6 9.4 306.55 9.4L306.55 9.4 295.7 9.4Q293.95 9.4 292.5 8.5 291.05 7.6 290.22 6.15 289.4 4.7 289.4 3.05L289.4 3.05Q289.4 1.2 290.4-0.43 291.4-2.05 293.1-2.75L293.1-2.75Q290.85-4.1 290.85-6.75L290.85-6.75Q290.85-8.5 291.92-9.78 293-11.05 294.9-11.8L294.9-11.8Q293.3-12.95 292.4-14.55 291.5-16.15 291.5-18L291.5-18Q291.5-21.55 293.95-23.8 296.4-26.05 301.25-26.05L301.25-26.05Q304.5-26.05 306.8-24.95L306.8-24.95Q308.65-25.45 309.85-26.8 311.05-28.15 311.3-30.15L311.3-30.15 313.7-30.15Q313.7-27.95 312.32-26.05 310.95-24.15 308.75-23.85L308.75-23.85 308.7-23.65Q309.8-22.7 310.4-21.23 311-19.75 311-18L311-18Q311-14.45 308.55-12.23 306.1-10 301.25-10L301.25-10 297.15-10Q295.55-10 294.47-9.1 293.4-8.2 293.4-6.65L293.4-6.65Q293.4-5.1 294.45-4.23 295.5-3.35 297.15-3.35L297.15-3.35 307.8-3.35ZM308.45-18Q308.45-20.45 306.52-22.1 304.6-23.75 301.25-23.75L301.25-23.75Q297.9-23.75 295.97-22.1 294.05-20.45 294.05-18L294.05-18Q294.05-15.55 295.97-13.9 297.9-12.25 301.25-12.25L301.25-12.25Q304.6-12.25 306.52-13.9 308.45-15.55 308.45-18L308.45-18ZM306.7 7.1Q308.5 7.1 309.82 5.83 311.15 4.55 311.15 2.75L311.15 2.75Q311.15 1.3 310.1 0.2 309.05-0.9 307.6-0.9L307.6-0.9 295.9-0.9Q294.25-0.9 293.07 0.28 291.9 1.45 291.9 3.1L291.9 3.1Q291.9 4.75 293.07 5.93 294.25 7.1 295.9 7.1L295.9 7.1 306.7 7.1ZM320.05-33.3L320.05-36 323-36 323-33.3 320.05-33.3ZM322.8 0L320.25 0 320.25-25.55 322.8-25.55 322.8 0ZM350.75 0L350.75-15.7Q350.75-19.75 348.87-21.75 347-23.75 343.55-23.75L343.55-23.75Q341.35-23.75 339.55-22.7 337.75-21.65 336.72-19.8 335.7-17.95 335.7-15.7L335.7-15.7 335.7 0 333.15 0 333.15-25.55 334.85-25.55 335.4-21.75Q336.7-23.75 338.97-24.9 341.25-26.05 343.8-26.05L343.8-26.05Q348-26.05 350.62-23.63 353.25-21.2 353.25-16.45L353.25-16.45 353.25 0 350.75 0ZM381.85-9.45Q381.85-6.35 380.52-4.1 379.2-1.85 376.95-0.68 374.7 0.5 371.9 0.5L371.9 0.5Q368.75 0.5 366.32-1.03 363.9-2.55 362.55-5.45 361.2-8.35 361.2-12.4L361.2-12.4 361.2-13.15Q361.2-17.2 362.52-20.1 363.85-23 366.27-24.53 368.7-26.05 371.85-26.05L371.85-26.05Q374.7-26.05 376.97-24.83 379.25-23.6 380.55-21.28 381.85-18.95 381.85-15.7L381.85-15.7 381.85-12.5 363.75-12.5 363.75-12.1Q363.75-7.1 366.02-4.45 368.3-1.8 371.9-1.8L371.9-1.8Q375.1-1.8 377.22-3.75 379.35-5.7 379.35-9.45L379.35-9.45 381.85-9.45ZM371.85-23.75Q368.5-23.75 366.3-21.45 364.1-19.15 363.8-14.8L363.8-14.8 379.35-14.8 379.35-15.7Q379.35-19.6 377.22-21.68 375.1-23.75 371.85-23.75L371.85-23.75ZM409.65-9.45Q409.65-6.35 408.32-4.1 407-1.85 404.75-0.68 402.5 0.5 399.7 0.5L399.7 0.5Q396.55 0.5 394.12-1.03 391.7-2.55 390.35-5.45 389-8.35 389-12.4L389-12.4 389-13.15Q389-17.2 390.32-20.1 391.65-23 394.07-24.53 396.5-26.05 399.65-26.05L399.65-26.05Q402.5-26.05 404.77-24.83 407.05-23.6 408.35-21.28 409.65-18.95 409.65-15.7L409.65-15.7 409.65-12.5 391.55-12.5 391.55-12.1Q391.55-7.1 393.82-4.45 396.1-1.8 399.7-1.8L399.7-1.8Q402.9-1.8 405.02-3.75 407.15-5.7 407.15-9.45L407.15-9.45 409.65-9.45ZM399.65-23.75Q396.3-23.75 394.1-21.45 391.9-19.15 391.6-14.8L391.6-14.8 407.15-14.8 407.15-15.7Q407.15-19.6 405.02-21.68 402.9-23.75 399.65-23.75L399.65-23.75ZM433.65-16.4L433.65-17.2Q433.65-19.7 432.2-21.73 430.75-23.75 427.4-23.75L427.4-23.75Q425.1-23.75 423.65-22.53 422.2-21.3 421.57-19.55 420.95-17.8 420.95-16.2L420.95-16.2 420.95 0 418.4 0 418.4-25.55 420.1-25.55 420.65-21.75Q420.65-21.95 421.42-23.05 422.2-24.15 423.82-25.1 425.45-26.05 427.9-26.05L427.9-26.05Q431.85-26.05 433.97-23.63 436.1-21.2 436.1-17.6L436.1-17.6Q436.1-17.1 436.05-16.8 436-16.5 436-16.4L436-16.4 433.65-16.4Z" opacity="1" transform="matrix(1,0,0,1,0,0)" fill="#ffffff" class="undefined-text-1" data-fill-palette-color="secondary" id="text-1"></path></svg></g></svg></g></svg></g></svg></g><g></g></svg></g><defs></defs></svg><rect width="376.0074654321659" height="247.2" fill="none" stroke="none" visibility="hidden"></rect></g></svg></g></svg>